<?xml version="1.0" encoding="UTF-8" standalone="no"?>
<!-- Created with Inkscape (http://www.inkscape.org/) -->

<svg
   width="204.02258mm"
   height="21.349092mm"
   viewBox="0 0 204.02258 21.349092"
   version="1.1"
   id="svg1"
   xmlns="http://www.w3.org/2000/svg"
   xmlns:svg="http://www.w3.org/2000/svg">
  <defs
     id="defs1" />
  <g
     id="layer1"
     transform="translate(19.687194,-82.483133)">
    <g
       id="g30">
      <path
         style="fill:#0767f7;stroke-width:0.57169"
         d="m -9.8165882,93.693635 -3.0966608,6.610185 h 3.2455388 q 0.4912971,0 1.0719211,-0.342424 0.2233169,-0.119103 0.431746,-0.342419 0.3424192,-0.372195 0.6550628,-1.027258 l 1.6376573,-3.617734 q 0.2679802,-0.655063 0.1042145,-0.967706 -0.1488779,-0.312644 -0.8486042,-0.312644 z M -19.687195,103.83222 -9.7272614,82.483127 H 3.5973133 L 1.7958904,86.368841 H -6.377508 l -1.6823206,3.617734 h 5.0469618 q 2.41182249,0 3.06688538,0.818828 0.65506289,0.803941 -0.26798027,2.843569 l -2.24805671,4.778981 q -0.6550629,1.339901 -1.5632183,2.322497 l -0.074439,0.0744 q -0.9677065,1.01237 -2.0396276,1.68232 -1.0570333,0.66995 -2.0991788,0.99748 -1.0421455,0.32753 -1.8609739,0.32753 z"
         id="path10" />
      <path
         style="fill:#0767f7;stroke-width:0.57169"
         d="m 15.144312,86.752918 -1.393499,3.025204 H 8.3554676 l -1.6793458,3.537346 h 5.1928712 l -1.345859,2.870371 H 5.3421733 L 3.174507,100.72365 h 6.1218707 l -1.453051,3.10857 H -2.2208381 L 5.7590322,86.752918 Z M 8.5817621,103.83222 20.265721,86.752918 h 5.59782 l -3.966115,17.079302 h -4.335332 l 4.752191,-15.042649 -9.39719,15.042649 z"
         id="path11" />
      <path
         style="fill:#0767f7;stroke-width:0.57169"
         d="m 36.499378,96.462764 h 5.300055 l -1.518555,3.215764 q -0.565737,1.146362 -1.235687,1.950302 -0.669951,0.78905 -1.518555,1.28035 -0.848604,0.4913 -1.950301,0.71461 -1.086809,0.20843 -2.530925,0.20843 h -3.855938 q -0.714614,0 -1.652545,-0.20843 -0.937931,-0.22331 -1.592994,-0.89326 -0.640175,-0.66996 -0.74439,-1.89075 -0.01489,-0.13399 -0.01489,-0.26798 0,-1.161253 0.848604,-2.977563 l 5.434044,-11.40405 q 0.863492,-1.875862 2.233169,-2.784017 1.384565,-0.923043 3.290202,-0.923043 h 6.148659 q 0.908155,0 1.697208,0.312643 0.803941,0.312644 1.250575,0.967707 0.446634,0.655063 0.446634,1.667433 0,1.01237 -0.669951,2.42671 l -0.937931,1.994964 h -5.32983 l 1.205911,-2.5607 q 0.178654,-0.387083 0.178654,-0.625287 0,-0.193542 -0.104215,-0.297756 -0.26798,-0.238205 -0.640175,-0.238205 h -2.724466 q -0.506185,0 -0.908155,0.238205 -0.387083,0.238204 -0.789053,1.027258 L 30.648476,98.51728 q -0.223317,0.506185 -0.223317,0.789053 0,0.253092 0.178653,0.357307 0.357307,0.208429 0.655063,0.208429 h 2.188506 q 0.833716,0 1.28035,-0.312644 0.461521,-0.312643 0.982594,-1.399452 z"
         id="path12" />
      <path
         style="fill:#0767f7;stroke-width:0.57169"
         d="m 48.933675,96.185839 -3.644538,7.646381 h -4.109038 l 8.039422,-17.079302 h 4.204319 l -3.120486,6.56255 7.05087,-6.56255 h 4.20432 l -8.825498,8.539652 0.690794,8.53965 h -4.109037 z m 23.975341,-9.432921 -1.3935,3.025204 h -5.395345 l -1.679345,3.537346 h 5.19287 l -1.345858,2.870371 h -5.180961 l -2.167666,4.537811 h 6.12187 l -1.453051,3.10857 H 55.543866 l 7.97987,-17.079302 z m 10.147538,0 h 4.109038 L 79.11426,103.83222 h -4.204319 l 5.419165,-9.980791 -9.349549,9.980791 h -4.20432 l 8.146614,-17.079302 h 4.109037 l -5.252422,10.135626 z m -2.584525,-3.573077 -1.464961,3.108577 h 4.109038 l 1.476871,-3.108577 z m 20.592821,3.573077 -1.393499,3.025204 h -3.73982 l -6.693562,14.054098 h -4.109038 l 6.610191,-14.054098 h -4.442525 l 1.3935,-3.025204 z"
         id="path13" />
      <path
         style="font-style:italic;font-weight:bold;font-size:30.4902px;font-family:'Progress(RUS BY LYAJKA)';-inkscape-font-specification:'Progress(RUS BY LYAJKA) Bold Italic';fill:#0767f7;stroke-width:0.57169"
         d="m 99.65348,103.83222 h -5.151176 l 9.930156,-21.349093 h 9.58774 q 0.81883,0 1.54833,0.327531 0.74439,0.327532 1.17614,0.997482 0.44663,0.669951 0.47641,1.682321 v 0.07444 q 0,0.982594 -0.59552,2.322496 l -2.20339,4.778981 q -0.98259,2.039628 -2.39693,2.858456 -1.41434,0.803941 -3.82617,0.803941 h -5.04696 z m 8.39672,-11.210506 q 0.69972,0 1.14636,-0.312644 0.44663,-0.312643 0.78905,-0.967706 l 1.74187,-3.617734 q 0.29776,-0.655063 0.29776,-1.027258 0,-0.223317 -0.10422,-0.342419 -0.26798,-0.342419 -0.75928,-0.342419 h -3.24553 l -3.06689,6.61018 z"
         id="path14" />
      <path
         style="fill:#0767f7;stroke-width:0.57169"
         d="m 129.33382,86.752918 -1.3935,3.025204 h -5.39534 l -1.67935,3.537346 h 5.19287 l -1.34586,2.870371 h -5.18096 l -2.16766,4.537811 h 6.12187 l -1.45305,3.10857 h -10.06417 l 7.97987,-17.079302 z m 4.69264,11.183728 h 4.24005 l -1.21484,2.572614 q -0.45259,0.91709 -0.98855,1.56024 -0.53597,0.63125 -1.21485,1.02429 -0.67888,0.39303 -1.56024,0.57169 -0.86945,0.16674 -2.02475,0.16674 h -3.08475 q -0.57169,0 -1.32204,-0.16674 -0.75035,-0.17866 -1.2744,-0.71462 -0.51214,-0.53596 -0.59551,-1.5126 -0.0119,-0.10719 -0.0119,-0.21438 0,-0.929 0.67888,-2.382054 l 4.34725,-9.123255 q 0.69079,-1.500692 1.78653,-2.227218 1.10766,-0.738435 2.63217,-0.738435 h 4.91894 q 0.72652,0 1.35776,0.250115 0.64316,0.250115 1.00047,0.774166 0.3573,0.524052 0.3573,1.333949 0,0.809897 -0.53596,1.941371 l -0.75034,1.595974 h -4.26387 l 0.96473,-2.048563 q 0.14292,-0.309667 0.14292,-0.500231 0,-0.154833 -0.0834,-0.238205 -0.21439,-0.190564 -0.51214,-0.190564 h -2.17958 q -0.40495,0 -0.72653,0.190564 -0.30966,0.190564 -0.63124,0.821807 l -4.13286,8.89696 q -0.17865,0.404949 -0.17865,0.631239 0,0.20248 0.14292,0.28585 0.28585,0.16674 0.52405,0.16674 h 1.75081 q 0.66697,0 1.02428,-0.25011 0.36922,-0.25012 0.78608,-1.119565 z m 10.95743,5.895574 h -4.10904 l 4.10904,-6.16951 -0.39304,-10.909792 h 4.33533 l -0.8218,7.896498 5.4668,-7.896498 h 4.33533 z m 10.98125,0 h -4.12095 l 7.94414,-17.079302 h 7.6702 q 0.65506,0 1.23867,0.262025 0.59551,0.262026 0.94091,0.797987 0.3573,0.535962 0.38113,1.345859 v 0.05955 q 0,0.786077 -0.47641,1.858 l -1.76272,3.823191 q -0.78608,1.631705 -1.91755,2.286769 -1.13148,0.643154 -3.06094,0.643154 h -4.03757 z m 6.71738,-8.968419 q 0.55978,0 0.91709,-0.250116 0.35731,-0.250115 0.63124,-0.774166 l 1.3935,-2.894192 q 0.23821,-0.524051 0.23821,-0.821808 0,-0.178653 -0.0834,-0.273935 -0.21438,-0.273936 -0.60742,-0.273936 h -2.59643 l -2.45352,5.288153 z m 13.62535,3.072845 h 4.24005 l -1.21485,2.572614 q -0.45259,0.91709 -0.98855,1.56024 -0.53596,0.63125 -1.21485,1.02429 -0.67888,0.39303 -1.56024,0.57169 -0.86945,0.16674 -2.02474,0.16674 h -3.08476 q -0.57169,0 -1.32204,-0.16674 -0.75034,-0.17866 -1.27439,-0.71462 -0.51215,-0.53596 -0.59552,-1.5126 -0.0119,-0.10719 -0.0119,-0.21438 0,-0.929 0.67889,-2.382054 l 4.34724,-9.123255 q 0.69079,-1.500692 1.78654,-2.227218 1.10765,-0.738435 2.63216,-0.738435 h 4.91894 q 0.72652,0 1.35777,0.250115 0.64315,0.250115 1.00046,0.774166 0.35731,0.524052 0.35731,1.333949 0,0.809897 -0.53596,1.941371 l -0.75035,1.595974 h -4.26387 l 0.96473,-2.048563 q 0.14292,-0.309667 0.14292,-0.500231 0,-0.154833 -0.0834,-0.238205 -0.21438,-0.190564 -0.51214,-0.190564 h -2.17958 q -0.40495,0 -0.72652,0.190564 -0.30967,0.190564 -0.63125,0.821807 l -4.13285,8.89696 q -0.17866,0.404949 -0.17866,0.631239 0,0.20248 0.14292,0.28585 0.28585,0.16674 0.52406,0.16674 h 1.7508 q 0.66698,0 1.02428,-0.25011 0.36922,-0.25012 0.78608,-1.119565 z"
         id="path15" />
    </g>
  </g>
</svg>
